<svg width="21" height="21" viewBox="0 0 21 21" fill="none" xmlns="http://www.w3.org/2000/svg">
<path fill-rule="evenodd" clip-rule="evenodd" d="M15.8625 3.70312C15.1905 3.70312 14.6465 4.24812 14.6465 4.91912C14.6465 5.59113 15.1905 6.13512 15.8625 6.13512C16.5345 6.13512 17.0785 5.59113 17.0785 4.91912C17.0785 4.24812 16.5345 3.70312 15.8625 3.70312Z" fill="#767D8C"/>
<path fill-rule="evenodd" clip-rule="evenodd" d="M10.4567 13.6437C8.65166 13.6437 7.18366 12.1757 7.18366 10.3717C7.18366 8.56767 8.65166 7.09967 10.4567 7.09967C12.2607 7.09967 13.7277 8.56767 13.7277 10.3717C13.7277 12.1757 12.2607 13.6437 10.4567 13.6437ZM10.4567 5.26367C7.63966 5.26367 5.34766 7.55467 5.34766 10.3717C5.34766 13.1887 7.63966 15.4797 10.4567 15.4797C13.2727 15.4797 15.5647 13.1887 15.5647 10.3717C15.5647 7.55467 13.2727 5.26367 10.4567 5.26367Z" fill="#767D8C"/>
<path fill-rule="evenodd" clip-rule="evenodd" d="M6.23 1.951C3.871 1.951 1.952 3.87 1.952 6.23V14.512C1.952 16.871 3.871 18.791 6.23 18.791H14.512C16.872 18.791 18.792 16.871 18.792 14.512V6.23C18.792 3.87 16.872 1.951 14.512 1.951H6.23ZM14.512 20.742H6.23C2.795 20.742 0 17.947 0 14.512V6.23C0 2.795 2.795 0 6.23 0H14.512C17.947 0 20.743 2.795 20.743 6.23V14.512C20.743 17.947 17.947 20.742 14.512 20.742Z" fill="#767D8C"/>
</svg>
