<svg width="20" height="40" viewBox="0 0 20 40" fill="none" xmlns="http://www.w3.org/2000/svg">
<path d="M10.4389 39.067L18.6222 30.8836C19.1263 30.3795 19.1278 29.5644 18.6251 29.0617C18.1234 28.56 17.3074 28.5606 16.8033 29.0648L10.7573 35.1108L10.7846 1.57107C10.7851 0.858426 10.2069 0.280753 9.49431 0.281976C8.7842 0.283197 8.20903 0.858902 8.20848 1.56901L8.18223 35.096L2.23394 29.0906C1.73218 28.5888 0.916247 28.5895 0.412116 29.0936C-0.0920159 29.5977 -0.0935878 30.4127 0.409093 30.9154L8.59128 39.0976C8.86062 39.367 9.18984 39.4731 9.51624 39.4456C9.84899 39.4448 10.1845 39.3213 10.4389 39.067Z" fill="#767D8C"/>
</svg>
