<svg width="20" height="16" viewBox="0 0 20 16" fill="none" xmlns="http://www.w3.org/2000/svg">
<path fill-rule="evenodd" clip-rule="evenodd" d="M19.2154 1.90328C18.6024 2.18028 17.9244 2.34828 17.2644 2.45928C17.5784 2.40728 18.0394 1.83928 18.2234 1.60928C18.5054 1.25828 18.7394 0.859276 18.8714 0.428276C18.8874 0.394276 18.9004 0.352276 18.8674 0.326276C18.8244 0.309276 18.7964 0.318276 18.7634 0.335276C18.0254 0.730276 17.2624 1.01728 16.4504 1.22028C16.3824 1.23728 16.3324 1.22028 16.2894 1.17828C16.2234 1.10228 16.1604 1.03028 16.0874 0.971276C15.7474 0.680276 15.3804 0.453276 14.9674 0.284276C14.4244 0.0632764 13.8324 -0.0297236 13.2484 0.00827635C12.6804 0.0452764 12.1224 0.205276 11.6184 0.468276C11.1124 0.732276 10.6624 1.09928 10.3024 1.54328C9.93137 2.00128 9.65737 2.54228 9.51637 3.11628C9.38137 3.67028 9.39237 4.21828 9.47537 4.77728C9.48837 4.87028 9.47937 4.88328 9.39537 4.87028C6.21737 4.39728 3.58337 3.26128 1.44637 0.824276C1.35337 0.718276 1.30237 0.718276 1.22637 0.832276C0.290373 2.23528 0.745373 4.48828 1.91437 5.59528C2.07037 5.74328 2.23037 5.89028 2.40237 6.02528C2.33937 6.03828 1.56137 5.95328 0.869373 5.59528C0.775373 5.53628 0.729373 5.57028 0.720373 5.67528C0.712373 5.82728 0.725373 5.96628 0.746373 6.13128C0.925373 7.55228 1.91037 8.86728 3.25837 9.38028C3.41837 9.44828 3.59537 9.50728 3.76837 9.53628C3.46037 9.60328 3.14437 9.65228 2.26337 9.58228C2.15437 9.56128 2.11237 9.61628 2.15437 9.72128C2.81637 11.5263 4.24537 12.0633 5.31537 12.3683C5.45737 12.3943 5.60137 12.3943 5.74537 12.4273C5.73637 12.4403 5.72837 12.4403 5.71937 12.4523C5.36537 12.9943 4.13437 13.3973 3.56137 13.5973C2.51837 13.9613 1.38337 14.1253 0.282373 14.0163C0.106373 13.9913 0.0693734 13.9923 0.0213734 14.0163C-0.0276266 14.0463 0.0153734 14.0893 0.0723734 14.1343C0.295373 14.2823 0.522373 14.4123 0.754373 14.5393C1.45437 14.9103 2.18337 15.2053 2.94637 15.4163C6.88437 16.5043 11.3214 15.7043 14.2794 12.7663C16.6014 10.4583 17.4144 7.27628 17.4144 4.09028C17.4144 3.96628 17.5624 3.89728 17.6504 3.83128C18.2544 3.37728 18.7424 2.83428 19.1924 2.22728C19.2934 2.09128 19.2944 1.97028 19.2944 1.92028C19.2944 1.91128 19.2944 1.90328 19.2944 1.90328C19.2944 1.85228 19.2934 1.86828 19.2154 1.90328Z" fill="#767D8C"/>
</svg>
