<svg width="33" height="33" viewBox="0 0 33 33" fill="none" xmlns="http://www.w3.org/2000/svg">
<path d="M32.0472 16.0491L25.5005 9.50243C25.0972 9.09912 24.4451 9.09794 24.0429 9.50009C23.6415 9.9015 23.6421 10.5542 24.0454 10.9575L28.8822 15.7944L2.05041 15.7725C1.4803 15.7721 1.01816 16.2346 1.01914 16.8047C1.02011 17.3728 1.48068 17.833 2.04876 17.8334L28.8703 17.8544L24.066 22.613C23.6646 23.0145 23.6651 23.6672 24.0684 24.0705C24.4717 24.4738 25.1238 24.4751 25.5259 24.0729L32.0716 17.5272C32.2871 17.3117 32.3721 17.0483 32.35 16.7872C32.3494 16.521 32.2506 16.2526 32.0472 16.0491Z" fill="#767D8C"/>
</svg>
