<svg width="33" height="33" viewBox="0 0 33 33" fill="none" xmlns="http://www.w3.org/2000/svg">
<path d="M1.54659 16.0491L8.09328 9.50243C8.49658 9.09912 9.14867 9.09794 9.55081 9.50009C9.95222 9.9015 9.9517 10.5542 9.54839 10.9575L4.71155 15.7944L31.5433 15.7725C32.1135 15.7721 32.5756 16.2346 32.5746 16.8047C32.5736 17.3728 32.1131 17.833 31.545 17.8334L4.72341 17.8544L9.52773 22.613C9.92914 23.0145 9.92862 23.6672 9.52531 24.0705C9.12201 24.4738 8.47 24.4751 8.06785 24.0729L1.5221 17.5272C1.30663 17.3117 1.22168 17.0483 1.2437 16.7872C1.24437 16.521 1.34313 16.2526 1.54659 16.0491Z" fill="#767D8C"/>
</svg>
